<mxfile host="app.diagrams.net" modified="2023-11-10T03:39:01.243Z" agent="Mozilla/5.0 (Windows NT 10.0; Win64; x64) AppleWebKit/537.36 (KHTML, like Gecko) Chrome/119.0.0.0 Safari/537.36" etag="gSv1ML5GAfGvjH4Ffb_8" version="22.1.0" type="device">
  <diagram name="Page-1" id="U_3AlIs_gVCGzzo1Gc_M">
    <mxGraphModel dx="1050" dy="530" grid="0" gridSize="10" guides="1" tooltips="1" connect="1" arrows="1" fold="1" page="1" pageScale="1" pageWidth="827" pageHeight="1169" math="0" shadow="0">
      <root>
        <mxCell id="0" />
        <mxCell id="1" parent="0" />
        <mxCell id="W4VUWPfhVpjg3Sd3oScH-1" value="user" style="shape=umlActor;verticalLabelPosition=bottom;verticalAlign=top;html=1;outlineConnect=0;" vertex="1" parent="1">
          <mxGeometry x="115" y="106" width="30" height="60" as="geometry" />
        </mxCell>
        <mxCell id="W4VUWPfhVpjg3Sd3oScH-2" value="student" style="shape=umlActor;verticalLabelPosition=bottom;verticalAlign=top;html=1;outlineConnect=0;" vertex="1" parent="1">
          <mxGeometry x="36" y="296" width="30" height="60" as="geometry" />
        </mxCell>
        <mxCell id="W4VUWPfhVpjg3Sd3oScH-3" value="faculty" style="shape=umlActor;verticalLabelPosition=bottom;verticalAlign=top;html=1;outlineConnect=0;" vertex="1" parent="1">
          <mxGeometry x="113" y="298" width="30" height="60" as="geometry" />
        </mxCell>
        <mxCell id="W4VUWPfhVpjg3Sd3oScH-4" value="staff" style="shape=umlActor;verticalLabelPosition=bottom;verticalAlign=top;html=1;outlineConnect=0;" vertex="1" parent="1">
          <mxGeometry x="204" y="298" width="30" height="60" as="geometry" />
        </mxCell>
        <mxCell id="W4VUWPfhVpjg3Sd3oScH-6" value="" style="endArrow=classic;html=1;rounded=0;" edge="1" parent="1" source="W4VUWPfhVpjg3Sd3oScH-2" target="W4VUWPfhVpjg3Sd3oScH-1">
          <mxGeometry width="50" height="50" relative="1" as="geometry">
            <mxPoint x="387" y="301" as="sourcePoint" />
            <mxPoint x="437" y="251" as="targetPoint" />
          </mxGeometry>
        </mxCell>
        <mxCell id="W4VUWPfhVpjg3Sd3oScH-7" value="" style="endArrow=classic;html=1;rounded=0;" edge="1" parent="1" source="W4VUWPfhVpjg3Sd3oScH-3" target="W4VUWPfhVpjg3Sd3oScH-1">
          <mxGeometry width="50" height="50" relative="1" as="geometry">
            <mxPoint x="387" y="301" as="sourcePoint" />
            <mxPoint x="437" y="251" as="targetPoint" />
          </mxGeometry>
        </mxCell>
        <mxCell id="W4VUWPfhVpjg3Sd3oScH-9" value="" style="endArrow=classic;html=1;rounded=0;" edge="1" parent="1" source="W4VUWPfhVpjg3Sd3oScH-4" target="W4VUWPfhVpjg3Sd3oScH-1">
          <mxGeometry width="50" height="50" relative="1" as="geometry">
            <mxPoint x="387" y="301" as="sourcePoint" />
            <mxPoint x="437" y="251" as="targetPoint" />
          </mxGeometry>
        </mxCell>
        <mxCell id="W4VUWPfhVpjg3Sd3oScH-10" value="log in" style="ellipse;whiteSpace=wrap;html=1;" vertex="1" parent="1">
          <mxGeometry x="302" y="47" width="109" height="45" as="geometry" />
        </mxCell>
        <mxCell id="W4VUWPfhVpjg3Sd3oScH-11" value="view dashboard" style="ellipse;whiteSpace=wrap;html=1;" vertex="1" parent="1">
          <mxGeometry x="309" y="169" width="114" height="47" as="geometry" />
        </mxCell>
        <mxCell id="W4VUWPfhVpjg3Sd3oScH-12" value="view profile" style="ellipse;whiteSpace=wrap;html=1;" vertex="1" parent="1">
          <mxGeometry x="309" y="231" width="110" height="44" as="geometry" />
        </mxCell>
        <mxCell id="W4VUWPfhVpjg3Sd3oScH-13" value="log out" style="ellipse;whiteSpace=wrap;html=1;" vertex="1" parent="1">
          <mxGeometry x="309" y="106" width="108" height="45" as="geometry" />
        </mxCell>
        <mxCell id="W4VUWPfhVpjg3Sd3oScH-14" value="view notification" style="ellipse;whiteSpace=wrap;html=1;" vertex="1" parent="1">
          <mxGeometry x="314" y="292" width="119" height="44" as="geometry" />
        </mxCell>
        <mxCell id="W4VUWPfhVpjg3Sd3oScH-15" value="" style="endArrow=none;html=1;rounded=0;" edge="1" parent="1" source="W4VUWPfhVpjg3Sd3oScH-1" target="W4VUWPfhVpjg3Sd3oScH-10">
          <mxGeometry width="50" height="50" relative="1" as="geometry">
            <mxPoint x="387" y="312" as="sourcePoint" />
            <mxPoint x="437" y="262" as="targetPoint" />
          </mxGeometry>
        </mxCell>
        <mxCell id="W4VUWPfhVpjg3Sd3oScH-16" value="" style="endArrow=none;html=1;rounded=0;" edge="1" parent="1" source="W4VUWPfhVpjg3Sd3oScH-14" target="W4VUWPfhVpjg3Sd3oScH-1">
          <mxGeometry width="50" height="50" relative="1" as="geometry">
            <mxPoint x="387" y="312" as="sourcePoint" />
            <mxPoint x="437" y="262" as="targetPoint" />
          </mxGeometry>
        </mxCell>
        <mxCell id="W4VUWPfhVpjg3Sd3oScH-17" value="" style="endArrow=none;html=1;rounded=0;" edge="1" parent="1" source="W4VUWPfhVpjg3Sd3oScH-1" target="W4VUWPfhVpjg3Sd3oScH-13">
          <mxGeometry width="50" height="50" relative="1" as="geometry">
            <mxPoint x="387" y="312" as="sourcePoint" />
            <mxPoint x="437" y="262" as="targetPoint" />
          </mxGeometry>
        </mxCell>
        <mxCell id="W4VUWPfhVpjg3Sd3oScH-18" value="" style="endArrow=none;html=1;rounded=0;" edge="1" parent="1" source="W4VUWPfhVpjg3Sd3oScH-1" target="W4VUWPfhVpjg3Sd3oScH-11">
          <mxGeometry width="50" height="50" relative="1" as="geometry">
            <mxPoint x="387" y="312" as="sourcePoint" />
            <mxPoint x="437" y="262" as="targetPoint" />
          </mxGeometry>
        </mxCell>
        <mxCell id="W4VUWPfhVpjg3Sd3oScH-19" value="" style="endArrow=none;html=1;rounded=0;" edge="1" parent="1" source="W4VUWPfhVpjg3Sd3oScH-12" target="W4VUWPfhVpjg3Sd3oScH-1">
          <mxGeometry width="50" height="50" relative="1" as="geometry">
            <mxPoint x="387" y="312" as="sourcePoint" />
            <mxPoint x="437" y="262" as="targetPoint" />
          </mxGeometry>
        </mxCell>
        <mxCell id="W4VUWPfhVpjg3Sd3oScH-20" value="&lt;h1&gt;&lt;span style=&quot;background-color: initial;&quot;&gt;Note&lt;/span&gt;&lt;/h1&gt;&lt;h1&gt;&lt;span style=&quot;font-weight: 400;&quot;&gt;&lt;font style=&quot;font-size: 18px;&quot;&gt;Dashboard should be configured according to the user and the role assigned to him/her.&lt;/font&gt;&lt;/span&gt;&lt;/h1&gt;&lt;div&gt;&lt;span style=&quot;font-weight: 400;&quot;&gt;&lt;font style=&quot;font-size: 18px;&quot;&gt;All the supposed modules should be accessible from the main panel&lt;/font&gt;&lt;/span&gt;&lt;/div&gt;" style="text;html=1;strokeColor=none;fillColor=none;spacing=5;spacingTop=-20;whiteSpace=wrap;overflow=hidden;rounded=0;" vertex="1" parent="1">
          <mxGeometry x="537" y="104" width="245" height="262" as="geometry" />
        </mxCell>
      </root>
    </mxGraphModel>
  </diagram>
</mxfile>
